<?xml version="1.0" encoding="utf-8"?>
<!-- Generator: Adobe Illustrator 23.0.5, SVG Export Plug-In . SVG Version: 6.00 Build 0)  -->
<svg version="1.1" id="Capa_1" xmlns="http://www.w3.org/2000/svg" xmlns:xlink="http://www.w3.org/1999/xlink" x="0px" y="0px"
	 viewBox="0 0 512 512" style="enable-background:new 0 0 512 512;" xml:space="preserve">
<style type="text/css">
	.st0{fill:#FFFFFF;}
</style>
<g>
	<g>
		<path class="st0" d="M503.47,85.98h-34.13V43.32c0.02-4.71-3.79-8.55-8.5-8.56c-0.25,0-0.5,0.01-0.75,0.03l-22.26,1.88
			c-53.99,4.47-106.94,17.38-156.93,38.26L256,85.28l-24.87-10.32c-49.99-20.89-102.95-33.8-156.95-38.27l-22.27-1.9
			c-4.7-0.4-8.82,3.09-9.22,7.79c-0.02,0.25-0.03,0.5-0.03,0.75v42.67H8.53C3.82,85.98,0,89.81,0,94.52v358.4
			c0,4.71,3.82,8.53,8.53,8.53h494.93c4.71,0,8.53-3.82,8.53-8.53V94.52C512,89.81,508.18,85.98,503.47,85.98z M17.07,444.4V103.05
			h25.6v298.67c-0.02,4.44,3.38,8.16,7.81,8.53l22.96,1.96c6.26,0.52,12.52,1.17,18.77,1.94c2.09,0.25,4.16,0.58,6.25,0.85
			c4.14,0.55,8.28,1.11,12.4,1.77c2.46,0.39,4.91,0.85,7.36,1.29c3.74,0.66,7.48,1.31,11.2,2.05c2.56,0.51,5.12,1.08,7.68,1.63
			c3.59,0.77,7.19,1.55,10.76,2.41c2.56,0.61,5.16,1.27,7.74,1.93c3.52,0.9,7.04,1.83,10.55,2.8c2.56,0.72,5.12,1.47,7.68,2.22
			c3.48,1.03,6.95,2.1,10.42,3.21c2.54,0.81,5.07,1.64,7.59,2.49c3.49,1.17,6.95,2.4,10.42,3.65c2.46,0.85,4.92,1.78,7.36,2.71
			c1.06,0.4,2.11,0.85,3.16,1.25L17.07,444.4L17.07,444.4z M247.47,440.12l-15.74-6.57c-49.95-20.93-102.88-33.89-156.85-38.4
			l-15.15-1.26V52.6l13.02,1.09c52.23,4.32,103.46,16.8,151.82,37.01l22.89,9.51V440.12z M264.53,440.12V100.21l22.92-9.51
			c48.35-20.2,99.57-32.69,151.79-37l13.02-1.09v341.26L438.25,395c-54,4.48-106.98,17.36-157.01,38.18L264.53,440.12z
			 M494.93,444.38H299.35c1.17-0.45,2.33-0.93,3.5-1.37c2.56-0.98,5.12-1.91,7.74-2.84c3.35-1.21,6.7-2.39,10.08-3.52
			c2.63-0.85,5.27-1.71,7.91-2.56c3.37-1.08,6.76-2.1,10.15-3.11c2.66-0.79,5.33-1.56,8-2.3c3.41-0.96,6.83-1.85,10.33-2.73
			c2.65-0.67,5.3-1.35,7.96-1.98c3.55-0.85,7.13-1.62,10.7-2.38c2.56-0.55,5.12-1.13,7.73-1.64c3.75-0.74,7.53-1.4,11.29-2.06
			c2.44-0.43,4.87-0.85,7.32-1.28c4.21-0.67,8.42-1.24,12.65-1.8c2.02-0.26,4.04-0.59,6.08-0.85c6.26-0.76,12.55-1.4,18.87-1.94
			l21.85-1.77c4.44-0.36,7.85-4.08,7.83-8.53V103.05h25.6L494.93,444.38L494.93,444.38z"/>
	</g>
</g>
</svg>
