<?xml version="1.0" encoding="utf-8"?>
<!-- Generator: Adobe Illustrator 23.0.5, SVG Export Plug-In . SVG Version: 6.00 Build 0)  -->
<svg version="1.1" id="Capa_1" xmlns="http://www.w3.org/2000/svg" xmlns:xlink="http://www.w3.org/1999/xlink" x="0px" y="0px"
	 viewBox="0 0 512 512" style="enable-background:new 0 0 512 512;" xml:space="preserve">
<style type="text/css">
	.st0{fill:#FFFFFF;}
</style>
<g id="Calendar">
	<path class="st0" d="M469.33,51.2h-42.67V34.13C426.67,15.28,411.38,0,392.53,0c-18.85,0-34.13,15.28-34.13,34.13V51.2h-68.27
		V34.13C290.13,15.28,274.85,0,256,0c-18.85,0-34.13,15.28-34.13,34.13V51.2H153.6V34.13C153.6,15.28,138.32,0,119.47,0
		S85.33,15.28,85.33,34.13V51.2H42.67C19.1,51.2,0,70.3,0,93.87V435.2c0,23.56,19.1,42.67,42.67,42.67H281.6
		c4.71,0,8.53-3.82,8.53-8.53s-3.82-8.53-8.53-8.53H42.67c-14.12-0.04-25.56-11.48-25.6-25.6V170.67h477.87v145.07
		c0,4.71,3.82,8.53,8.53,8.53s8.53-3.82,8.53-8.53V93.87C512,70.3,492.9,51.2,469.33,51.2z M375.47,34.13
		c0-9.43,7.64-17.07,17.07-17.07c9.43,0,17.07,7.64,17.07,17.07v51.2c0,9.43-7.64,17.07-17.07,17.07c-9.43,0-17.07-7.64-17.07-17.07
		V34.13z M238.93,34.13c0-9.43,7.64-17.07,17.07-17.07c9.43,0,17.07,7.64,17.07,17.07v51.2c0,9.43-7.64,17.07-17.07,17.07
		c-9.43,0-17.07-7.64-17.07-17.07V34.13z M102.4,34.13c0-9.43,7.64-17.07,17.07-17.07s17.07,7.64,17.07,17.07v51.2
		c0,9.43-7.64,17.07-17.07,17.07s-17.07-7.64-17.07-17.07V34.13z M494.93,153.6H17.07V93.87c0.04-14.12,11.48-25.56,25.6-25.6h42.67
		v17.07c0,18.85,15.28,34.13,34.13,34.13s34.13-15.28,34.13-34.13V68.27h68.27v17.07c0,18.85,15.28,34.13,34.13,34.13
		c18.85,0,34.13-15.28,34.13-34.13V68.27h68.27v17.07c0,18.85,15.28,34.13,34.13,34.13c18.85,0,34.13-15.28,34.13-34.13V68.27h42.67
		c14.12,0.04,25.56,11.48,25.6,25.6V153.6z"/>
	<path class="st0" d="M238.93,230.4c0-9.43-7.64-17.07-17.07-17.07h-34.13c-9.43,0-17.07,7.64-17.07,17.07V256
		c0,9.43,7.64,17.07,17.07,17.07h34.13c9.43,0,17.07-7.64,17.07-17.07V230.4z M187.73,256v-25.6h34.13V256H187.73z"/>
	<path class="st0" d="M136.53,230.4c0-9.43-7.64-17.07-17.07-17.07H85.33c-9.43,0-17.07,7.64-17.07,17.07V256
		c0,9.43,7.64,17.07,17.07,17.07h34.13c9.43,0,17.07-7.64,17.07-17.07V230.4z M85.33,256v-25.6h34.13V256H85.33z"/>
	<path class="st0" d="M426.67,273.07c9.43,0,17.07-7.64,17.07-17.07v-25.6c0-9.43-7.64-17.07-17.07-17.07h-34.13
		c-9.43,0-17.07,7.64-17.07,17.07V256c0,9.43,7.64,17.07,17.07,17.07H426.67z M392.53,230.4h34.13V256h-34.13V230.4z"/>
	<path class="st0" d="M238.93,307.2c0-9.43-7.64-17.07-17.07-17.07h-34.13c-9.43,0-17.07,7.64-17.07,17.07v25.6
		c0,9.43,7.64,17.07,17.07,17.07h34.13c9.43,0,17.07-7.64,17.07-17.07V307.2z M187.73,332.8v-25.6h34.13v25.6H187.73z"/>
	<path class="st0" d="M136.53,307.2c0-9.43-7.64-17.07-17.07-17.07H85.33c-9.43,0-17.07,7.64-17.07,17.07v25.6
		c0,9.43,7.64,17.07,17.07,17.07h34.13c9.43,0,17.07-7.64,17.07-17.07V307.2z M85.33,332.8v-25.6h34.13v25.6H85.33z"/>
	<path class="st0" d="M221.87,366.93h-34.13c-9.43,0-17.07,7.64-17.07,17.07v25.6c0,9.43,7.64,17.07,17.07,17.07h34.13
		c9.43,0,17.07-7.64,17.07-17.07V384C238.93,374.57,231.29,366.93,221.87,366.93z M187.73,409.6V384h34.13v25.6H187.73z"/>
	<path class="st0" d="M290.13,273.07h34.13c9.43,0,17.07-7.64,17.07-17.07v-25.6c0-9.43-7.64-17.07-17.07-17.07h-34.13
		c-9.43,0-17.07,7.64-17.07,17.07V256C273.07,265.43,280.71,273.07,290.13,273.07z M290.13,230.4h34.13V256h-34.13V230.4z"/>
	<path class="st0" d="M273.07,332.8c0,9.43,7.64,17.07,17.07,17.07c4.71,0,8.53-3.82,8.53-8.53s-3.82-8.53-8.53-8.53v-25.6h34.13
		c4.71,0,8.53-3.82,8.53-8.53s-3.82-8.53-8.53-8.53h-34.13c-9.43,0-17.07,7.64-17.07,17.07V332.8z"/>
	<path class="st0" d="M119.47,366.93H85.33c-9.43,0-17.07,7.64-17.07,17.07v25.6c0,9.43,7.64,17.07,17.07,17.07h34.13
		c9.43,0,17.07-7.64,17.07-17.07V384C136.53,374.57,128.89,366.93,119.47,366.93z M85.33,409.6V384h34.13v25.6H85.33z"/>
	<path class="st0" d="M401.07,290.13c-61.27,0-110.93,49.67-110.93,110.93S339.8,512,401.07,512S512,462.33,512,401.07
		C511.93,339.83,462.3,290.2,401.07,290.13z M401.07,494.93c-51.84,0-93.87-42.03-93.87-93.87s42.03-93.87,93.87-93.87
		s93.87,42.03,93.87,93.87C494.87,452.88,452.88,494.87,401.07,494.93z"/>
	<path class="st0" d="M450.37,365.29L384,431.67l-30.17-30.17c-3.39-3.27-8.79-3.18-12.07,0.21c-3.19,3.31-3.19,8.55,0,11.86
		l36.2,36.21c3.33,3.33,8.73,3.33,12.07,0l72.41-72.41c3.27-3.39,3.18-8.79-0.21-12.07C458.92,362.1,453.68,362.1,450.37,365.29z"/>
</g>
</svg>
