<?xml version="1.0" encoding="utf-8"?>
<!-- Generator: Adobe Illustrator 23.0.5, SVG Export Plug-In . SVG Version: 6.00 Build 0)  -->
<svg version="1.1" id="Capa_1" xmlns="http://www.w3.org/2000/svg" xmlns:xlink="http://www.w3.org/1999/xlink" x="0px" y="0px"
	 viewBox="0 0 512 512" style="enable-background:new 0 0 512 512;" xml:space="preserve">
<style type="text/css">
	.st0{fill:#FFFFFF;}
</style>
<g>
	<path class="st0" d="M511.6,409.8c0-0.4-0.1-0.9-0.4-1.3c-2-3.1-7.1-5.1-10.9-4.2c-0.7,0.2-1.5,0.2-2.4,0.2c0-0.8,0-1.3,0-1.8
		c0-59.1,0-118.2,0-177.3c0-4.6-0.1-9.1-1-13.6c-1-4.7-3-9-6.3-12.6c-2.5-2.7-5.6-4.8-9-6.3c-3.4-1.5-7-2.4-10.7-2.4
		c-18.2-0.1-36.3,0-54.5,0c-0.5,0-1,0-1.6,0c0-0.6,0-1.1,0-1.6c0-27.9,0-55.7,0-83.6c0-5.2-0.2-10.4-1.3-15.6
		c-1.4-6.8-3.8-13.1-7.3-19c-3.1-5.1-7-9.5-11.6-13.2c-4.3-3.5-9-6.2-14.1-8.2c-5.9-2.3-12-3.8-18.4-4C350.7,45,339.3,45,327.9,45
		c-82.3,0.1-164.6,0.2-246.9,0.2c-8.1,0-16.3,0-24.4,0c-4.3,0-8.6,0.4-12.8,1.3c-9.2,1.8-17.4,5.6-24.4,11.8
		c-5,4.4-9.1,9.6-12.2,15.5c-2.6,4.9-4.4,10.1-5.9,15.5C0.3,92.8,0,96.4,0,100c0,75.6,0,151.2,0.1,226.7c0,1.2,0.2,2.5,0.6,3.7
		c0.6,2.3,1.5,4.5,2.1,6.8c2.1,8.3,6.3,15.5,11.8,21.8c4.9,5.6,10.7,10,17.5,13c7.5,3.3,15.3,5,23.4,5c21.7,0.2,43.5,0.1,65.2,0.1
		c0.5,0,1,0,1.6,0c-3.4,13.7-6.8,27.4-10.2,41c-0.4,0-0.6,0-0.9,0c-20.5,0.1-40.9,0.2-61.4,0.3c-1.4,0-2.8,0.1-4.3,0.3
		c-5.6,0.8-10.3,3.5-13.7,7.9c-3.9,5-5.1,10.7-3.7,16.9c1.2,5.3,3.9,9.7,8.5,12.9c3.8,2.6,8.2,3.5,12.7,3.5
		c116.1,0.1,232.2,0.2,348.3,0.3c25,0,50.1,0,75.1,0c5.5,0,11-0.1,16.5-1.3c5.5-1.2,10.5-3.6,14.5-7.6c2.6-2.6,4.7-5.6,6.1-9
		c0.7-1.7,1.6-3.4,1.6-5.1C511.7,428,511.6,418.9,511.6,409.8z M467.4,204.4c3,0,6.1,0.4,8.9,1.6c4.2,1.8,6.3,5.3,6.9,9.6
		c0.4,3.3,0.5,6.7,0.5,10c0,59,0,118,0,176.9c0,0.6,0,1.2,0,1.9c-0.6,0-1,0-1.4,0c-20.3,0-40.5,0-60.8,0c-3.3,0-6.6-0.3-10-0.2
		c-3.2,0.1-6.5,0.6-9.1,2.8c-1.5,1.2-2.8,2.6-4,4.1c-3,3.8-6.8,6-11.5,6.8c-5.4,1-10.8,0.3-16.2,0.5c-1.7,0-3.3-0.2-5-0.2
		c-17.4,0-34.7,0-52.1,0c-3,0-6,0.2-8.9,0.2c-1.1,0-2.2-0.3-3.3-0.4c-2.4-0.4-3.8-2.2-5.1-3.9c-3.9-5-9-8.2-15.3-9.3
		c-2.2-0.4-4.5-0.7-6.8-0.7c-3,0-6,0.3-9,0.4c-0.3,0-0.5,0-0.8,0c-18.5,0-37.1,0-55.6,0c-0.3,0-0.6,0-0.8,0
		c-0.1-0.1-0.2-0.2-0.2-0.3c-0.1-2.6-0.3-5.3-0.3-7.9c0-58.1,0-116.1,0-174.2c0-3.8,0.3-7.6,2.1-11.2c1.7-3.4,4.6-5.2,8.1-5.8
		c3.3-0.6,6.6-0.8,10-0.8C307.6,204.3,387.5,204.3,467.4,204.4z M61.6,363.2c-6.5,0-13-0.4-19.2-2.5c-4.8-1.6-9.3-3.9-13.2-7.2
		c-4.2-3.5-7.7-7.7-10.1-12.6c-2-4.1-3.4-8.4-4.1-12.9c-0.7-4-0.7-7.9-0.7-11.9c0-71.7,0-143.4,0-215.1c0-6.1,1.3-12,3.8-17.6
		c2-4.6,4.8-8.7,8.4-12.2c3.9-3.8,8.5-6.8,13.7-8.6c3.2-1.2,6.5-2,9.9-2.8c2-0.4,4.1-0.5,6.2-0.6c101,0,201.9-0.1,302.9,0
		c8.2,0,15.9,2.4,22.9,6.8c6.7,4.2,11.5,10,14.7,17.2c1.7,3.8,2.8,7.7,3.4,11.9c0.8,5.3,0.7,10.5,0.7,15.8c0,24.4,0,48.7,0,73.1
		c0,1.9-0.2,3.8-0.3,5.8c-6.8,0-13.6,0-20.5,0c0-0.5,0-1,0-1.5c0-26.1,0.1-52.2,0-78.3c0-5.6-1-11.2-3.7-16.3
		c-3-5.6-7.4-9.5-13.3-11.7c-3-1.1-6.2-1.9-9.4-2c-2-0.1-3.9-0.2-5.9-0.2c-94.8,0-189.7,0-284.5,0c-6.6,0-12.9,1.9-18.2,5.9
		c-4.9,3.7-7.8,8.8-9.1,14.7c-0.6,2.9-1,6-1,9c-0.1,61.6-0.1,123.2,0,184.8c0,8.2,2.9,15.5,9.3,21c3.6,3.1,7.9,4.8,12.5,5.7
		c3.4,0.7,6.8,0.8,10.2,0.8c41.6,0,83.1,0,124.7,0c0.5,0,1.1,0,1.7,0c0,13.8,0,27.4,0,41.2c-2.6,0.1-5,0.3-7.5,0.3
		C144.4,363.2,103,363.2,61.6,363.2z M177.5,446c-42.4,0-84.8,0-127.2,0c-2.5,0-4.9-0.5-6.7-2.4c-2-2.1-1.9-4.7-1.1-7.1
		c0.8-2.5,2.9-3.7,5.4-3.8c2.9-0.2,5.8-0.3,8.7-0.3c40.4,0,80.7,0,121.1,0c1.1,0,1.7,0.2,2,1.4c0.9,4,2,7.9,3.1,12
		C180.9,445.9,179.2,446,177.5,446z M193.3,403.8c-2.8,0.6-5.7,1.1-8.5,1.8c-3,0.7-4.2,3-4.6,5.8c-0.3,2.2-0.5,4.3-0.8,6.5
		c-17.4,0-34.7,0-52.3,0c0.5-2.5,1-4.9,1.6-7.3c1.9-7.6,3.8-15.2,5.7-22.8c0.6-2.4,1.1-4.8,1.9-7c0.7-2,1.7-3.4,4.5-3.4
		c17,0,34-0.1,51-0.2c0.5,0,1,0,1.6,0C193.3,386.1,193.3,395,193.3,403.8z M193.6,305.6c0,0.5,0,1.1,0,1.7c-1.8,0.1-3.5,0.4-5.3,0.4
		c-41.1,0-82.2,0-123.3,0c-3.2,0-6.5-0.4-9.5-1.8c-3.3-1.6-5.4-4.4-6.2-8c-0.5-2.2-0.8-4.5-0.8-6.8c0-60.8,0-121.5,0-182.3
		c0-4,0.9-7.8,3.7-10.8c0.9-1,2.1-1.7,3.3-2.3c2.9-1.5,6.1-1.8,9.3-1.8c95.3,0,190.6,0,285.9,0c3.2,0,6.4,0.6,9.2,2.4
		c3.1,1.9,4.5,4.9,5.2,8.3c0.4,2.2,0.5,4.6,0.5,6.9c0,25.8,0,51.5,0,77.3c0,0.5,0,1,0,1.7c-0.7,0-1.2,0-1.8,0
		c-47.7,0-95.4,0-143.2,0.1c-6.3,0-12.3,2-17.3,6c-5,4.1-8.2,9.4-9.3,15.8c-0.5,2.8-0.8,5.6-0.8,8.5
		C193.6,249,193.6,277.3,193.6,305.6z M488.1,445c-2.1,0.6-4.3,1-6.5,1c-90.7,0-181.3,0-272,0c-3.5,0-7-0.6-10.1-2.6
		c-2.8-1.8-4.5-4.4-5.2-7.6c-0.3-1.4-0.5-2.9-0.5-4.3c-0.1-4.2,0-8.4,0-12.7c2-0.1,3.7-0.4,5.4-0.4c19,0,38.1,0,57.1,0
		c6.8,0,13.7,0,20.5,0.3c2.7,0.1,5.1,1.2,6.9,3.5c4.2,5.5,9.8,8.8,16.7,9.9c5.5,0.9,11,0.4,16.5,0.5c5.9,0,11.8-0.1,17.7-0.2
		c2.9-0.1,5.7-0.2,8.6-0.2c13.2,0.1,26.3,0.1,39.5,0.2c2.5,0,5,0.3,7.4,0.2c1.9-0.1,3.9-0.4,5.8-0.9c3.3-0.8,5.6-3.1,7.5-5.7
		c2.9-3.8,6.7-6.2,11.4-7c2.6-0.4,5.2-0.5,7.8-0.5c19,0,38.1,0.2,57.1,0.2c5.4,0,10.9-0.2,16.3-0.2c0.5,0,0.9,0,1.5,0
		c0,0.8,0,1.5,0,2.2c0,3.9-0.1,7.9,0,11.8C497.6,438.3,493.7,443.6,488.1,445z"/>
	<path class="st0" d="M184.5,114.4c-33.4,0-66.7,0-100.1,0c-1.6,0-3.2,0.2-4.7,0.5c-3.7,0.8-6.7,2.6-8.8,6c-1.5,2.5-1.6,5.3-1.7,8.1
		c-0.1,13.1,0,26.2,0,39.3c0,0.4,0,0.7,0.1,1.1c4.6,0,9.2,0,13.8,0c0-13.6,0-27.2,0-41c34.6,0,69,0,103.4,0c0-4.1,0-8,0-11.9
		C186.5,114.4,186.5,114.4,184.5,114.4z"/>
	<path class="st0" d="M214,114.7c-4.4,0-8.7,0-13,0c0,4.4,0,8.8,0,13.3c4.4,0,8.7,0,13,0C214,123.5,214,119.1,214,114.7z"/>
	<path class="st0" d="M227.8,218.1c-1.2,0.2-2.4,0.5-3.4,1.1c-2.6,1.4-3.1,4-3.1,6.6c0,47.3,0,94.6,0,141.9c0,1.3,0,2.7,0.3,4
		c0.4,2.3,1.6,4.2,4.1,4.7c1.7,0.4,3.3,0.7,5,0.7c38.4,0,76.8,0,115.2,0c35.3,0,70.5,0,105.8,0c4,0,8.1,0,12.1-0.3
		c3.1-0.2,5.4-1.2,6.1-5c0.3-1.5,0.5-3,0.5-4.6c0-40.2,0-80.5,0-120.7c0-7.2,0-14.5-0.3-21.7c-0.1-3.7-1.5-5.5-4.7-6.4
		c-1.7-0.4-3.5-0.6-5.2-0.6c-76,0-151.9,0-227.9,0C230.7,217.8,229.2,217.8,227.8,218.1z M233.6,232c0-2.5,0.8-3.4,3.3-3.4
		c72.5,0,145,0,217.5,0c2.6,0,3.4,0.8,3.4,3.4c0,43.3,0,86.6,0,129.8c0,2.5-0.8,3.3-3.3,3.3c-36.3,0-72.5,0-108.8,0
		c-36.2,0-72.4,0-108.6,0c-2.8,0-3.5-0.7-3.5-3.5C233.6,318.5,233.6,275.3,233.6,232z"/>
	<path class="st0" d="M339.1,404.4c4.4,0,8.8,0,13.3,0c0-4.6,0-9.1,0-13.6c-4.5,0-8.8,0-13.3,0C339.1,395.4,339.1,399.9,339.1,404.4
		z"/>
</g>
</svg>
